{
	"asset":{
		"generator":"Khronos glTF Blender I/O v3.6.27",
		"version":"2.0"
	},
	"extensionsUsed":[
		"KHR_texture_transform"
	],
	"extensionsRequired":[
		"KHR_texture_transform"
	],
	"scene":0,
	"scenes":[
		{
			"name":"Scene",
			"nodes":[
				0
			]
		}
	],
	"nodes":[
		{
			"mesh":0,
			"name":"Room12",
			"rotation":[
				-0.7071068286895752,
				0,
				0.7071067094802856,
				5.338507591545749e-08
			],
			"scale":[
				0.5,
				2.999999761581421,
				0.5
			],
			"translation":[
				3.8001468181610107,
				0.0009996677981689572,
				-4.334117412567139
			]
		}
	],
	"materials":[
		{
			"doubleSided":true,
			"name":"MaterialName.376",
			"pbrMetallicRoughness":{
				"baseColorFactor":[
					28,
					38,
					9,
					1
				],
				"metallicFactor":0,
				"roughnessFactor":0.4000000059604645
			}
		},
		{
			"doubleSided":true,
			"name":"DetailedMaterial",
			"pbrMetallicRoughness":{
				"baseColorTexture":{
					"extensions":{
						"KHR_texture_transform":{
							"offset":[
								0,
								-8.99999985098839
							],
							"scale":[
								9.99999985098839,
								9.99999985098839
							]
						}
					},
					"index":0
				},
				"metallicFactor":0,
				"roughnessFactor":0.5
			}
		},
		{
			"doubleSided":true,
			"name":"DetailedMaterial_rotated",
			"pbrMetallicRoughness":{
				"baseColorTexture":{
					"extensions":{
						"KHR_texture_transform":{
							"offset":[
								9.99999985098838,
								1.0000004371138935
							],
							"rotation":-1.5707963705062866,
							"scale":[
								9.99999985098839,
								9.99999985098839
							]
						}
					},
					"index":1
				},
				"metallicFactor":0,
				"roughnessFactor":0.5
			}
		},
		{
			"doubleSided":true,
			"name":"WhiteMaterial",
			"pbrMetallicRoughness":{
				"metallicFactor":0,
				"roughnessFactor":0.5
			}
		},
		{
			"doubleSided":true,
			"name":"MaterialName.363",
			"pbrMetallicRoughness":{
				"baseColorFactor":[
					40,
					1,
					1,
					1
				],
				"metallicFactor":0,
				"roughnessFactor":0.4000000059604645
			}
		},
		{
			"doubleSided":true,
			"name":"MaterialName.364",
			"pbrMetallicRoughness":{
				"baseColorFactor":[
					18,
					8,
					26,
					1
				],
				"metallicFactor":0,
				"roughnessFactor":0.4000000059604645
			}
		},
		{
			"doubleSided":true,
			"name":"MaterialName.365",
			"pbrMetallicRoughness":{
				"baseColorFactor":[
					11,
					11,
					31,
					1
				],
				"metallicFactor":0,
				"roughnessFactor":0.4000000059604645
			}
		},
		{
			"doubleSided":true,
			"name":"MaterialName.366",
			"pbrMetallicRoughness":{
				"baseColorFactor":[
					28,
					0,
					30,
					1
				],
				"metallicFactor":0,
				"roughnessFactor":0.4000000059604645
			}
		},
		{
			"doubleSided":true,
			"name":"MaterialName.367",
			"pbrMetallicRoughness":{
				"baseColorFactor":[
					4,
					36,
					26,
					1
				],
				"metallicFactor":0,
				"roughnessFactor":0.4000000059604645
			}
		},
		{
			"doubleSided":true,
			"name":"MaterialName.368",
			"pbrMetallicRoughness":{
				"baseColorFactor":[
					25,
					13,
					12,
					1
				],
				"metallicFactor":0,
				"roughnessFactor":0.4000000059604645
			}
		},
		{
			"doubleSided":true,
			"name":"MaterialName.369",
			"pbrMetallicRoughness":{
				"baseColorFactor":[
					13,
					21,
					11,
					1
				],
				"metallicFactor":0,
				"roughnessFactor":0.4000000059604645
			}
		},
		{
			"doubleSided":true,
			"name":"MaterialName.370",
			"pbrMetallicRoughness":{
				"baseColorFactor":[
					38,
					8,
					18,
					1
				],
				"metallicFactor":0,
				"roughnessFactor":0.4000000059604645
			}
		},
		{
			"doubleSided":true,
			"name":"MaterialName.371",
			"pbrMetallicRoughness":{
				"baseColorFactor":[
					12,
					0,
					34,
					1
				],
				"metallicFactor":0,
				"roughnessFactor":0.4000000059604645
			}
		},
		{
			"doubleSided":true,
			"name":"MaterialName.372",
			"pbrMetallicRoughness":{
				"baseColorFactor":[
					16,
					31,
					13,
					1
				],
				"metallicFactor":0,
				"roughnessFactor":0.4000000059604645
			}
		},
		{
			"doubleSided":true,
			"name":"MaterialName.373",
			"pbrMetallicRoughness":{
				"baseColorFactor":[
					34,
					12,
					29,
					1
				],
				"metallicFactor":0,
				"roughnessFactor":0.4000000059604645
			}
		},
		{
			"doubleSided":true,
			"name":"MaterialName.374",
			"pbrMetallicRoughness":{
				"baseColorFactor":[
					38,
					23,
					12,
					1
				],
				"metallicFactor":0,
				"roughnessFactor":0.4000000059604645
			}
		},
		{
			"doubleSided":true,
			"name":"MaterialName.375",
			"pbrMetallicRoughness":{
				"baseColorFactor":[
					37,
					3,
					27,
					1
				],
				"metallicFactor":0,
				"roughnessFactor":0.4000000059604645
			}
		}
	],
	"meshes":[
		{
			"name":"Room12",
			"primitives":[
				{
					"attributes":{
						"POSITION":0,
						"NORMAL":1,
						"TEXCOORD_0":2
					},
					"indices":3,
					"material":0
				},
				{
					"attributes":{
						"POSITION":4,
						"NORMAL":5,
						"TEXCOORD_0":6
					},
					"indices":7,
					"material":1
				},
				{
					"attributes":{
						"POSITION":8,
						"NORMAL":9,
						"TEXCOORD_0":10
					},
					"indices":11,
					"material":2
				},
				{
					"attributes":{
						"POSITION":12,
						"NORMAL":13,
						"TEXCOORD_0":14
					},
					"indices":15,
					"material":3
				},
				{
					"attributes":{
						"POSITION":16,
						"NORMAL":17,
						"TEXCOORD_0":18
					},
					"indices":19,
					"material":4
				},
				{
					"attributes":{
						"POSITION":20,
						"NORMAL":21,
						"TEXCOORD_0":22
					},
					"indices":23,
					"material":5
				},
				{
					"attributes":{
						"POSITION":24,
						"NORMAL":25,
						"TEXCOORD_0":26
					},
					"indices":27,
					"material":6
				},
				{
					"attributes":{
						"POSITION":28,
						"NORMAL":29,
						"TEXCOORD_0":30
					},
					"indices":31,
					"material":7
				},
				{
					"attributes":{
						"POSITION":32,
						"NORMAL":33,
						"TEXCOORD_0":34
					},
					"indices":35,
					"material":8
				},
				{
					"attributes":{
						"POSITION":36,
						"NORMAL":37,
						"TEXCOORD_0":38
					},
					"indices":39,
					"material":9
				},
				{
					"attributes":{
						"POSITION":40,
						"NORMAL":41,
						"TEXCOORD_0":42
					},
					"indices":43,
					"material":10
				},
				{
					"attributes":{
						"POSITION":44,
						"NORMAL":45,
						"TEXCOORD_0":46
					},
					"indices":47,
					"material":11
				},
				{
					"attributes":{
						"POSITION":48,
						"NORMAL":49,
						"TEXCOORD_0":50
					},
					"indices":51,
					"material":12
				},
				{
					"attributes":{
						"POSITION":52,
						"NORMAL":53,
						"TEXCOORD_0":54
					},
					"indices":55,
					"material":13
				},
				{
					"attributes":{
						"POSITION":56,
						"NORMAL":57,
						"TEXCOORD_0":58
					},
					"indices":59,
					"material":14
				},
				{
					"attributes":{
						"POSITION":60,
						"NORMAL":61,
						"TEXCOORD_0":62
					},
					"indices":63,
					"material":15
				},
				{
					"attributes":{
						"POSITION":64,
						"NORMAL":65,
						"TEXCOORD_0":66
					},
					"indices":67,
					"material":16
				}
			]
		}
	],
	"textures":[
		{
			"sampler":0,
			"source":0
		},
		{
			"sampler":0,
			"source":0
		}
	],
	"images":[
		{
			"mimeType":"image/jpeg",
			"name":"vmhhdbjn_4K_Albedo",
			"uri":"textures/vmhhdbjn_4K_Albedo.jpg"
		}
	],
	"accessors":[
		{
			"bufferView":0,
			"componentType":5126,
			"count":68,
			"max":[
				6.385882377624512,
				-6.661338147750939e-16,
				6.970147132873535
			],
			"min":[
				-9.694117546081543,
				-6.661338147750939e-16,
				-5.709853172302246
			],
			"type":"VEC3"
		},
		{
			"bufferView":1,
			"componentType":5126,
			"count":68,
			"type":"VEC3"
		},
		{
			"bufferView":2,
			"componentType":5126,
			"count":68,
			"type":"VEC2"
		},
		{
			"bufferView":3,
			"componentType":5123,
			"count":198,
			"type":"SCALAR"
		},
		{
			"bufferView":4,
			"componentType":5126,
			"count":1068,
			"max":[
				5.6058831214904785,
				0.0010000169277191162,
				7.180147171020508
			],
			"min":[
				-9.714117050170898,
				-0.999000072479248,
				-6.889853000640869
			],
			"type":"VEC3"
		},
		{
			"bufferView":5,
			"componentType":5126,
			"count":1068,
			"type":"VEC3"
		},
		{
			"bufferView":6,
			"componentType":5126,
			"count":1068,
			"type":"VEC2"
		},
		{
			"bufferView":7,
			"componentType":5123,
			"count":1602,
			"type":"SCALAR"
		},
		{
			"bufferView":8,
			"componentType":5126,
			"count":232,
			"max":[
				6.545882701873779,
				0.0010000169277191162,
				7.180147171020508
			],
			"min":[
				-9.904117584228516,
				-0.999000072479248,
				-6.889853477478027
			],
			"type":"VEC3"
		},
		{
			"bufferView":9,
			"componentType":5126,
			"count":232,
			"type":"VEC3"
		},
		{
			"bufferView":10,
			"componentType":5126,
			"count":232,
			"type":"VEC2"
		},
		{
			"bufferView":11,
			"componentType":5123,
			"count":348,
			"type":"SCALAR"
		},
		{
			"bufferView":12,
			"componentType":5126,
			"count":650,
			"max":[
				6.545882701873779,
				0.0010000000474974513,
				7.180147171020508
			],
			"min":[
				-9.904117584228516,
				-0.9990000128746033,
				-6.889852523803711
			],
			"type":"VEC3"
		},
		{
			"bufferView":13,
			"componentType":5126,
			"count":650,
			"type":"VEC3"
		},
		{
			"bufferView":14,
			"componentType":5126,
			"count":650,
			"type":"VEC2"
		},
		{
			"bufferView":15,
			"componentType":5123,
			"count":1722,
			"type":"SCALAR"
		},
		{
			"bufferView":16,
			"componentType":5126,
			"count":28,
			"max":[
				6.545882701873779,
				0.0010000000474974513,
				7.160147190093994
			],
			"min":[
				-9.904117584228516,
				0.0010000000474974513,
				-6.879853248596191
			],
			"type":"VEC3"
		},
		{
			"bufferView":17,
			"componentType":5126,
			"count":28,
			"type":"VEC3"
		},
		{
			"bufferView":18,
			"componentType":5126,
			"count":28,
			"type":"VEC2"
		},
		{
			"bufferView":19,
			"componentType":5123,
			"count":78,
			"type":"SCALAR"
		},
		{
			"bufferView":20,
			"componentType":5126,
			"count":5,
			"max":[
				-1.874117374420166,
				-4.092726157978177e-11,
				-5.94985294342041
			],
			"min":[
				-2.2841174602508545,
				-4.092726157978177e-11,
				-6.879852771759033
			],
			"type":"VEC3"
		},
		{
			"bufferView":21,
			"componentType":5126,
			"count":5,
			"type":"VEC3"
		},
		{
			"bufferView":22,
			"componentType":5126,
			"count":5,
			"type":"VEC2"
		},
		{
			"bufferView":23,
			"componentType":5123,
			"count":9,
			"type":"SCALAR"
		},
		{
			"bufferView":24,
			"componentType":5126,
			"count":7,
			"max":[
				6.365882396697998,
				-9.265366252009244e-12,
				-0.4898529648780823
			],
			"min":[
				4.595882415771484,
				-9.265366252009244e-12,
				-0.9098529815673828
			],
			"type":"VEC3"
		},
		{
			"bufferView":25,
			"componentType":5126,
			"count":7,
			"type":"VEC3"
		},
		{
			"bufferView":26,
			"componentType":5126,
			"count":7,
			"type":"VEC2"
		},
		{
			"bufferView":27,
			"componentType":5123,
			"count":15,
			"type":"SCALAR"
		},
		{
			"bufferView":28,
			"componentType":5126,
			"count":9,
			"max":[
				2.315882682800293,
				4.794742380909156e-11,
				-0.43985289335250854
			],
			"min":[
				0.5158826112747192,
				4.794742380909156e-11,
				-1.0098528861999512
			],
			"type":"VEC3"
		},
		{
			"bufferView":29,
			"componentType":5126,
			"count":9,
			"type":"VEC3"
		},
		{
			"bufferView":30,
			"componentType":5126,
			"count":9,
			"type":"VEC2"
		},
		{
			"bufferView":31,
			"componentType":5123,
			"count":21,
			"type":"SCALAR"
		},
		{
			"bufferView":32,
			"componentType":5126,
			"count":8,
			"max":[
				-7.764117240905762,
				-4.683886611900334e-11,
				0.2901470363140106
			],
			"min":[
				-8.854117393493652,
				-4.683886611900334e-11,
				-0.6298529505729675
			],
			"type":"VEC3"
		},
		{
			"bufferView":33,
			"componentType":5126,
			"count":8,
			"type":"VEC3"
		},
		{
			"bufferView":34,
			"componentType":5126,
			"count":8,
			"type":"VEC2"
		},
		{
			"bufferView":35,
			"componentType":5123,
			"count":18,
			"type":"SCALAR"
		},
		{
			"bufferView":36,
			"componentType":5126,
			"count":4,
			"max":[
				4.995882511138916,
				3.495870259939693e-12,
				0.6001469492912292
			],
			"min":[
				4.595882892608643,
				3.495870259939693e-12,
				-0.2598530650138855
			],
			"type":"VEC3"
		},
		{
			"bufferView":37,
			"componentType":5126,
			"count":4,
			"type":"VEC3"
		},
		{
			"bufferView":38,
			"componentType":5126,
			"count":4,
			"type":"VEC2"
		},
		{
			"bufferView":39,
			"componentType":5123,
			"count":6,
			"type":"SCALAR"
		},
		{
			"bufferView":40,
			"componentType":5126,
			"count":16,
			"max":[
				-4.574117660522461,
				-2.924616104849065e-11,
				1.670147180557251
			],
			"min":[
				-5.784117698669434,
				-2.924616104849065e-11,
				0.2701471447944641
			],
			"type":"VEC3"
		},
		{
			"bufferView":41,
			"componentType":5126,
			"count":16,
			"type":"VEC3"
		},
		{
			"bufferView":42,
			"componentType":5126,
			"count":16,
			"type":"VEC2"
		},
		{
			"bufferView":43,
			"componentType":5123,
			"count":36,
			"type":"SCALAR"
		},
		{
			"bufferView":44,
			"componentType":5126,
			"count":10,
			"max":[
				5.01588249206543,
				3.034017481695628e-11,
				2.3101470470428467
			],
			"min":[
				2.6458823680877686,
				3.034017481695628e-11,
				0.8501469492912292
			],
			"type":"VEC3"
		},
		{
			"bufferView":45,
			"componentType":5126,
			"count":10,
			"type":"VEC3"
		},
		{
			"bufferView":46,
			"componentType":5126,
			"count":10,
			"type":"VEC2"
		},
		{
			"bufferView":47,
			"componentType":5123,
			"count":24,
			"type":"SCALAR"
		},
		{
			"bufferView":48,
			"componentType":5126,
			"count":40,
			"max":[
				-6.01411771774292,
				-3.100797396626831e-11,
				2.3301470279693604
			],
			"min":[
				-7.524117469787598,
				-3.100797396626831e-11,
				0.49014705419540405
			],
			"type":"VEC3"
		},
		{
			"bufferView":49,
			"componentType":5126,
			"count":40,
			"type":"VEC3"
		},
		{
			"bufferView":50,
			"componentType":5126,
			"count":40,
			"type":"VEC2"
		},
		{
			"bufferView":51,
			"componentType":5123,
			"count":105,
			"type":"SCALAR"
		},
		{
			"bufferView":52,
			"componentType":5126,
			"count":14,
			"max":[
				-7.744117259979248,
				-2.7526647627951206e-11,
				2.3301472663879395
			],
			"min":[
				-9.704117774963379,
				-2.7526647627951206e-11,
				0.31014716625213623
			],
			"type":"VEC3"
		},
		{
			"bufferView":53,
			"componentType":5126,
			"count":14,
			"type":"VEC3"
		},
		{
			"bufferView":54,
			"componentType":5126,
			"count":14,
			"type":"VEC2"
		},
		{
			"bufferView":55,
			"componentType":5123,
			"count":36,
			"type":"SCALAR"
		},
		{
			"bufferView":56,
			"componentType":5126,
			"count":9,
			"max":[
				1.2858827114105225,
				1.695354967523599e-11,
				2.970147132873535
			],
			"min":[
				0.8058826923370361,
				1.695354967523599e-11,
				1.4801472425460815
			],
			"type":"VEC3"
		},
		{
			"bufferView":57,
			"componentType":5126,
			"count":9,
			"type":"VEC3"
		},
		{
			"bufferView":58,
			"componentType":5126,
			"count":9,
			"type":"VEC2"
		},
		{
			"bufferView":59,
			"componentType":5123,
			"count":21,
			"type":"SCALAR"
		},
		{
			"bufferView":60,
			"componentType":5126,
			"count":9,
			"max":[
				1.285882830619812,
				2.4483526317453652e-11,
				4.600146770477295
			],
			"min":[
				0.8058828115463257,
				2.4483526317453652e-11,
				2.9901468753814697
			],
			"type":"VEC3"
		},
		{
			"bufferView":61,
			"componentType":5126,
			"count":9,
			"type":"VEC3"
		},
		{
			"bufferView":62,
			"componentType":5126,
			"count":9,
			"type":"VEC2"
		},
		{
			"bufferView":63,
			"componentType":5123,
			"count":21,
			"type":"SCALAR"
		},
		{
			"bufferView":64,
			"componentType":5126,
			"count":8,
			"max":[
				2.4158825874328613,
				-3.228695089063649e-11,
				6.970146656036377
			],
			"min":[
				0.8158825635910034,
				-3.228695089063649e-11,
				5.780146598815918
			],
			"type":"VEC3"
		},
		{
			"bufferView":65,
			"componentType":5126,
			"count":8,
			"type":"VEC3"
		},
		{
			"bufferView":66,
			"componentType":5126,
			"count":8,
			"type":"VEC2"
		},
		{
			"bufferView":67,
			"componentType":5123,
			"count":18,
			"type":"SCALAR"
		}
	],
	"bufferViews":[
		{
			"buffer":0,
			"byteLength":816,
			"byteOffset":0,
			"target":34962
		},
		{
			"buffer":0,
			"byteLength":816,
			"byteOffset":816,
			"target":34962
		},
		{
			"buffer":0,
			"byteLength":544,
			"byteOffset":1632,
			"target":34962
		},
		{
			"buffer":0,
			"byteLength":396,
			"byteOffset":2176,
			"target":34963
		},
		{
			"buffer":0,
			"byteLength":12816,
			"byteOffset":2572,
			"target":34962
		},
		{
			"buffer":0,
			"byteLength":12816,
			"byteOffset":15388,
			"target":34962
		},
		{
			"buffer":0,
			"byteLength":8544,
			"byteOffset":28204,
			"target":34962
		},
		{
			"buffer":0,
			"byteLength":3204,
			"byteOffset":36748,
			"target":34963
		},
		{
			"buffer":0,
			"byteLength":2784,
			"byteOffset":39952,
			"target":34962
		},
		{
			"buffer":0,
			"byteLength":2784,
			"byteOffset":42736,
			"target":34962
		},
		{
			"buffer":0,
			"byteLength":1856,
			"byteOffset":45520,
			"target":34962
		},
		{
			"buffer":0,
			"byteLength":696,
			"byteOffset":47376,
			"target":34963
		},
		{
			"buffer":0,
			"byteLength":7800,
			"byteOffset":48072,
			"target":34962
		},
		{
			"buffer":0,
			"byteLength":7800,
			"byteOffset":55872,
			"target":34962
		},
		{
			"buffer":0,
			"byteLength":5200,
			"byteOffset":63672,
			"target":34962
		},
		{
			"buffer":0,
			"byteLength":3444,
			"byteOffset":68872,
			"target":34963
		},
		{
			"buffer":0,
			"byteLength":336,
			"byteOffset":72316,
			"target":34962
		},
		{
			"buffer":0,
			"byteLength":336,
			"byteOffset":72652,
			"target":34962
		},
		{
			"buffer":0,
			"byteLength":224,
			"byteOffset":72988,
			"target":34962
		},
		{
			"buffer":0,
			"byteLength":156,
			"byteOffset":73212,
			"target":34963
		},
		{
			"buffer":0,
			"byteLength":60,
			"byteOffset":73368,
			"target":34962
		},
		{
			"buffer":0,
			"byteLength":60,
			"byteOffset":73428,
			"target":34962
		},
		{
			"buffer":0,
			"byteLength":40,
			"byteOffset":73488,
			"target":34962
		},
		{
			"buffer":0,
			"byteLength":18,
			"byteOffset":73528,
			"target":34963
		},
		{
			"buffer":0,
			"byteLength":84,
			"byteOffset":73548,
			"target":34962
		},
		{
			"buffer":0,
			"byteLength":84,
			"byteOffset":73632,
			"target":34962
		},
		{
			"buffer":0,
			"byteLength":56,
			"byteOffset":73716,
			"target":34962
		},
		{
			"buffer":0,
			"byteLength":30,
			"byteOffset":73772,
			"target":34963
		},
		{
			"buffer":0,
			"byteLength":108,
			"byteOffset":73804,
			"target":34962
		},
		{
			"buffer":0,
			"byteLength":108,
			"byteOffset":73912,
			"target":34962
		},
		{
			"buffer":0,
			"byteLength":72,
			"byteOffset":74020,
			"target":34962
		},
		{
			"buffer":0,
			"byteLength":42,
			"byteOffset":74092,
			"target":34963
		},
		{
			"buffer":0,
			"byteLength":96,
			"byteOffset":74136,
			"target":34962
		},
		{
			"buffer":0,
			"byteLength":96,
			"byteOffset":74232,
			"target":34962
		},
		{
			"buffer":0,
			"byteLength":64,
			"byteOffset":74328,
			"target":34962
		},
		{
			"buffer":0,
			"byteLength":36,
			"byteOffset":74392,
			"target":34963
		},
		{
			"buffer":0,
			"byteLength":48,
			"byteOffset":74428,
			"target":34962
		},
		{
			"buffer":0,
			"byteLength":48,
			"byteOffset":74476,
			"target":34962
		},
		{
			"buffer":0,
			"byteLength":32,
			"byteOffset":74524,
			"target":34962
		},
		{
			"buffer":0,
			"byteLength":12,
			"byteOffset":74556,
			"target":34963
		},
		{
			"buffer":0,
			"byteLength":192,
			"byteOffset":74568,
			"target":34962
		},
		{
			"buffer":0,
			"byteLength":192,
			"byteOffset":74760,
			"target":34962
		},
		{
			"buffer":0,
			"byteLength":128,
			"byteOffset":74952,
			"target":34962
		},
		{
			"buffer":0,
			"byteLength":72,
			"byteOffset":75080,
			"target":34963
		},
		{
			"buffer":0,
			"byteLength":120,
			"byteOffset":75152,
			"target":34962
		},
		{
			"buffer":0,
			"byteLength":120,
			"byteOffset":75272,
			"target":34962
		},
		{
			"buffer":0,
			"byteLength":80,
			"byteOffset":75392,
			"target":34962
		},
		{
			"buffer":0,
			"byteLength":48,
			"byteOffset":75472,
			"target":34963
		},
		{
			"buffer":0,
			"byteLength":480,
			"byteOffset":75520,
			"target":34962
		},
		{
			"buffer":0,
			"byteLength":480,
			"byteOffset":76000,
			"target":34962
		},
		{
			"buffer":0,
			"byteLength":320,
			"byteOffset":76480,
			"target":34962
		},
		{
			"buffer":0,
			"byteLength":210,
			"byteOffset":76800,
			"target":34963
		},
		{
			"buffer":0,
			"byteLength":168,
			"byteOffset":77012,
			"target":34962
		},
		{
			"buffer":0,
			"byteLength":168,
			"byteOffset":77180,
			"target":34962
		},
		{
			"buffer":0,
			"byteLength":112,
			"byteOffset":77348,
			"target":34962
		},
		{
			"buffer":0,
			"byteLength":72,
			"byteOffset":77460,
			"target":34963
		},
		{
			"buffer":0,
			"byteLength":108,
			"byteOffset":77532,
			"target":34962
		},
		{
			"buffer":0,
			"byteLength":108,
			"byteOffset":77640,
			"target":34962
		},
		{
			"buffer":0,
			"byteLength":72,
			"byteOffset":77748,
			"target":34962
		},
		{
			"buffer":0,
			"byteLength":42,
			"byteOffset":77820,
			"target":34963
		},
		{
			"buffer":0,
			"byteLength":108,
			"byteOffset":77864,
			"target":34962
		},
		{
			"buffer":0,
			"byteLength":108,
			"byteOffset":77972,
			"target":34962
		},
		{
			"buffer":0,
			"byteLength":72,
			"byteOffset":78080,
			"target":34962
		},
		{
			"buffer":0,
			"byteLength":42,
			"byteOffset":78152,
			"target":34963
		},
		{
			"buffer":0,
			"byteLength":96,
			"byteOffset":78196,
			"target":34962
		},
		{
			"buffer":0,
			"byteLength":96,
			"byteOffset":78292,
			"target":34962
		},
		{
			"buffer":0,
			"byteLength":64,
			"byteOffset":78388,
			"target":34962
		},
		{
			"buffer":0,
			"byteLength":36,
			"byteOffset":78452,
			"target":34963
		}
	],
	"samplers":[
		{
			"magFilter":9729,
			"minFilter":9987
		}
	],
	"buffers":[
		{
			"byteLength":78488,
			"uri":"floorplan48_s0.5_h3_brick_4k.bin"
		}
	]
}
